<svg width="28" height="28" viewBox="0 0 28 28" fill="none" xmlns="http://www.w3.org/2000/svg">
<g clip-path="url(#clip0_1052_3678)">
<path fill-rule="evenodd" clip-rule="evenodd" d="M12.0001 6.66667L8.66679 4.8L5.33346 6.66667L7.20012 3.33333L5.33346 0L8.66679 1.86667L12.0001 0L10.1334 3.33333L12.0001 6.66667ZM21.3333 16.0001L24.6666 17.8667L27.9999 16.0001L26.1333 19.3334L27.9999 22.6667L24.6666 20.8001L21.3333 22.6667L23.1999 19.3334L21.3333 16.0001ZM27.9999 0L24.6666 1.86667L21.3333 0L23.1999 3.33333L21.3333 6.66667L24.6666 4.8L27.9999 6.66667L26.1333 3.33333L27.9999 0ZM16.0001 7.06675C16.5334 6.53341 17.3334 6.53341 17.8667 7.06675L20.9334 10.1334C21.4667 10.6667 21.4667 11.4667 20.9334 12.0001L5.33333 27.6C4.8 28.1334 4 28.1334 3.46667 27.6L0.4 24.5334C-0.133333 24.0001 -0.133333 23.2001 0.4 22.6667L16.0001 7.06675ZM13.6001 11.6001L16.4001 14.4001L19.6001 11.2001L16.8001 8.40008L13.6001 11.6001Z" fill="url(#paint0_linear_1052_3678)"/>
</g>
<defs>
<linearGradient id="paint0_linear_1052_3678" x1="10.6667" y1="6.66675" x2="10.6667" y2="28" gradientUnits="userSpaceOnUse">
<stop stop-color="#F3A7FF"/>
<stop offset="1" stop-color="#C347FD"/>
</linearGradient>
<clipPath id="clip0_1052_3678">
<rect width="28" height="28" fill="white"/>
</clipPath>
</defs>
</svg>
