<svg id="symbol" xmlns="http://www.w3.org/2000/svg" width="16" height="12" viewBox="0 0 16 12">
  <path id="Path_1484" data-name="Path 1484" d="M15,5H1A1,1,0,0,1,1,3H15a1,1,0,0,1,0,2Z" transform="translate(0 -3)" fill="#6e6e6e"/>
  <path id="Path_1485" data-name="Path 1485" d="M9,8h8.667a1,1,0,1,1,0,2H9A1,1,0,1,1,9,8Z" transform="translate(-8 -4.667)" fill="#6e6e6e"/>
  <path id="Path_1486" data-name="Path 1486" d="M9,18h8.667a1,1,0,1,1,0,2H9a1,1,0,1,1,0-2Z" transform="translate(-8 -8)" fill="#6e6e6e"/>
  <path id="Path_1487" data-name="Path 1487" d="M1,13H15a1,1,0,1,1,0,2H1a1,1,0,1,1,0-2Z" transform="translate(0 -6.333)" fill="#6e6e6e"/>
</svg>
