<svg xmlns="http://www.w3.org/2000/svg" width="20" height="20" viewBox="0 0 20 20" fill="none">
  <g clip-path="url(#clip0_2224_9958)">
    <path fill-rule="evenodd" clip-rule="evenodd" d="M9.99998 2.49992C5.85784 2.49992 2.49998 5.85778 2.49998 9.99992C2.49998 14.1421 5.85784 17.4999 9.99998 17.4999C14.1421 17.4999 17.5 14.1421 17.5 9.99992C17.5 5.85778 14.1421 2.49992 9.99998 2.49992ZM0.833313 9.99992C0.833313 4.93731 4.93737 0.833252 9.99998 0.833252C15.0626 0.833252 19.1666 4.93731 19.1666 9.99992C19.1666 15.0625 15.0626 19.1666 9.99998 19.1666C4.93737 19.1666 0.833313 15.0625 0.833313 9.99992Z" fill="#5E53F9"/>
    <path fill-rule="evenodd" clip-rule="evenodd" d="M6.07739 8.57733C6.40283 8.25189 6.93047 8.25189 7.2559 8.57733L9.99998 11.3214L12.7441 8.57733C13.0695 8.25189 13.5971 8.25189 13.9226 8.57733C14.248 8.90277 14.248 9.4304 13.9226 9.75584L10.5892 13.0892C10.2638 13.4146 9.73616 13.4146 9.41072 13.0892L6.07739 9.75584C5.75195 9.4304 5.75195 8.90277 6.07739 8.57733Z" fill="#5E53F9"/>
  </g>
  <defs>
    <clipPath id="clip0_2224_9958">
      <rect width="20" height="20" fill="white"/>
    </clipPath>
  </defs>
</svg>