<svg xmlns="http://www.w3.org/2000/svg" width="18" height="22" viewBox="0 0 18 22" fill="none">
  <path fill-rule="evenodd" clip-rule="evenodd" d="M6.5682 2.50544e-06C6.57882 3.81674e-06 6.58945 5.12804e-06 6.6001 5.12804e-06L11.432 2.50544e-06C11.6844 -2.74161e-05 11.9302 -5.6861e-05 12.1383 0.0169504C12.3669 0.0356272 12.6367 0.0796948 12.9081 0.217992C13.2844 0.409739 13.5904 0.715701 13.7821 1.09202C13.9204 1.36345 13.9645 1.63318 13.9832 1.86178C13.987 1.90871 13.99 1.95756 13.9923 2.00797C14.3874 2.02072 14.7259 2.05337 15.0354 2.1363C16.4157 2.50617 17.4939 3.58436 17.8638 4.96473C18.0009 5.47638 18.0006 6.06704 18.0001 6.86243C18.0001 6.90762 18.0001 6.95347 18.0001 7.00001V16.2413C18.0001 17.0463 18.0001 17.7106 17.9559 18.2518C17.91 18.8139 17.8114 19.3306 17.5641 19.816C17.1806 20.5686 16.5687 21.1805 15.8161 21.564C15.3307 21.8113 14.814 21.9099 14.2519 21.9558C13.7107 22 13.0464 22 12.2414 22H5.75877C4.95381 22 4.28946 22 3.74827 21.9558C3.18617 21.9099 2.66947 21.8113 2.18413 21.564C1.43149 21.1805 0.819564 20.5686 0.436071 19.816C0.18878 19.3306 0.0902153 18.8139 0.0442901 18.2518C7.27288e-05 17.7106 8.32179e-05 17.0463 9.59733e-05 16.2413L9.64501e-05 7.00001C9.64501e-05 6.95347 7.16546e-05 6.90762 4.72167e-05 6.86242C-0.000383486 6.06704 -0.00070332 5.47638 0.136393 4.96473C0.506262 3.58436 1.58445 2.50617 2.96482 2.1363C3.27434 2.05337 3.61277 2.02072 4.00794 2.00796C4.01024 1.95756 4.01321 1.90871 4.01704 1.86178C4.03572 1.63318 4.07979 1.36345 4.21808 1.09202C4.40983 0.7157 4.71579 0.409739 5.09212 0.217992C5.36354 0.0796948 5.63327 0.0356272 5.86187 0.0169504C6.07002 -5.6861e-05 6.31582 -2.74161e-05 6.5682 2.50544e-06ZM4.00877 4.00956C3.74568 4.01867 3.60258 4.03597 3.48246 4.06815C2.79227 4.25309 2.25318 4.79218 2.06824 5.48237C2.00869 5.70465 2.0001 6.00565 2.0001 7.00001V16.2C2.0001 17.0566 2.00087 17.6389 2.03765 18.089C2.07347 18.5274 2.13839 18.7516 2.21808 18.908C2.40983 19.2843 2.71579 19.5903 3.09212 19.782C3.24852 19.8617 3.47272 19.9266 3.91113 19.9625C4.36122 19.9992 4.94352 20 5.8001 20H12.2001C13.0567 20 13.639 19.9992 14.0891 19.9625C14.5275 19.9266 14.7517 19.8617 14.9081 19.782C15.2844 19.5903 15.5904 19.2843 15.7821 18.908C15.8618 18.7516 15.9267 18.5274 15.9625 18.089C15.9993 17.6389 16.0001 17.0566 16.0001 16.2V7.00001C16.0001 6.00565 15.9915 5.70465 15.9319 5.48237C15.747 4.79218 15.2079 4.25309 14.5177 4.06815C14.3976 4.03597 14.2545 4.01867 13.9914 4.00956C13.9893 4.05378 13.9865 4.09676 13.9832 4.13824C13.9645 4.36683 13.9204 4.63656 13.7821 4.90799C13.5904 5.28431 13.2844 5.59027 12.9081 5.78202C12.6367 5.92032 12.3669 5.96438 12.1383 5.98306C11.9302 6.00007 11.6844 6.00004 11.432 6.00001L6.6001 6.00001C6.58945 6.00001 6.57882 6.00001 6.5682 6.00001C6.31582 6.00004 6.07002 6.00007 5.86187 5.98306C5.63327 5.96438 5.36354 5.92032 5.09212 5.78202C4.71579 5.59027 4.40983 5.28431 4.21808 4.90799C4.07979 4.63656 4.03572 4.36683 4.01704 4.13824C4.01365 4.09676 4.01094 4.05378 4.00877 4.00956ZM12.0001 2.60001C12.0001 2.30348 11.9993 2.14122 11.9898 2.02464C11.9894 2.02 11.989 2.0156 11.9886 2.01145C11.9845 2.01107 11.9801 2.01069 11.9755 2.01031C11.8589 2.00078 11.6966 2.00001 11.4001 2.00001H6.6001C6.30357 2.00001 6.14132 2.00078 6.02473 2.01031C6.02009 2.01069 6.0157 2.01107 6.01154 2.01145C6.01116 2.0156 6.01078 2.02 6.0104 2.02464C6.00087 2.14122 6.0001 2.30348 6.0001 2.60001V3.40001C6.0001 3.69653 6.00087 3.85879 6.0104 3.97537C6.01078 3.98001 6.01116 3.98441 6.01154 3.98856C6.0157 3.98894 6.02009 3.98932 6.02473 3.9897C6.14131 3.99923 6.30357 4.00001 6.6001 4.00001H11.4001C11.6966 4.00001 11.8589 3.99923 11.9755 3.9897C11.9801 3.98932 11.9845 3.98894 11.9886 3.98856C11.989 3.98441 11.9894 3.98001 11.9898 3.97537C11.9993 3.85879 12.0001 3.69653 12.0001 3.40001V2.60001Z" fill="#000000"/>
</svg>