<svg width="16" height="16" viewBox="0 0 16 16" fill="none" xmlns="http://www.w3.org/2000/svg">
<g id="Close">
<path id="Close_2" fill-rule="evenodd" clip-rule="evenodd" d="M8 16C12.4183 16 16 12.4183 16 8C16 3.58172 12.4183 0 8 0C3.58172 0 0 3.58172 0 8C0 12.4183 3.58172 16 8 16ZM8.97926 7.99996L10.7972 6.18179C11.0677 5.91138 11.0677 5.47307 10.7971 5.20266C10.5268 4.93245 10.0887 4.93245 9.81821 5.20266L8.00002 7.02082L6.18169 5.20266C5.91123 4.93245 5.47318 4.93245 5.20281 5.20266C4.9324 5.47307 4.9324 5.91138 5.20281 6.18179L7.02084 7.99994L5.20292 9.81802C4.9325 10.0886 4.9325 10.5269 5.20292 10.7973C5.33813 10.9325 5.51517 11 5.69233 11C5.86954 11 6.0467 10.9324 6.1818 10.7973L8.00004 8.97899L9.81841 10.7973C9.95342 10.9325 10.1306 11 10.3079 11C10.485 11 10.6621 10.9324 10.7972 10.7973C11.0677 10.5268 11.0677 10.0886 10.7972 9.81804L8.97926 7.99996Z" fill="#A1A9B2"/>
</g>
</svg>
