<svg id="collapsLeft" xmlns="http://www.w3.org/2000/svg" xmlns:xlink="http://www.w3.org/1999/xlink" width="14" height="12" viewBox="0 0 14 12">
  <defs>
    <clipPath id="clip-path">
      <rect id="Rectangle_2052" data-name="Rectangle 2052" width="14" height="12" fill="#6e6e6e"/>
    </clipPath>
  </defs>
  <g id="Group_2978" data-name="Group 2978" clip-path="url(#clip-path)">
    <path id="Path_1590" data-name="Path 1590" d="M2.675,5.593a.57.57,0,0,0,0,.814L5.93,9.62a.584.584,0,0,0,.995-.407V6.737h6.337a.737.737,0,1,0,0-1.474H6.925V2.787A.584.584,0,0,0,5.93,2.38ZM.588,0c.326,0,.589.363.589.811V11.189c0,.448-.263.811-.589.811S0,11.637,0,11.189V.811C0,.363.262,0,.588,0" transform="translate(0.002)" fill="#6e6e6e"/>
  </g>
</svg>
