<svg width="16" height="16" viewBox="0 0 16 16" fill="none" xmlns="http://www.w3.org/2000/svg">
<g clip-path="url(#clip0_1850_11588)">
<path d="M15.1591 5.11465L10.6934 0.542209C10.4658 0.298654 10.1707 0.177765 9.84003 0.177765H4.26136C3.54848 0.177765 2.97425 0.751987 2.97425 1.46488V6.39288H1.58581C0.992032 6.39288 0.510254 6.87465 0.510254 7.46843V10.88C0.510254 11.4738 0.992032 11.9555 1.58581 11.9555H10.3751C10.9689 11.9555 11.4507 11.4738 11.4507 10.88V7.46665C11.4507 6.87288 10.9689 6.3911 10.3751 6.3911H4.36625V1.63732C4.36625 1.60176 4.40181 1.56799 4.43559 1.56799H9.77248C9.98048 1.56799 10.1547 1.74221 10.1547 1.95021V4.34843C10.1547 5.06132 10.7289 5.63554 11.4418 5.63554H13.7191C13.9271 5.63554 14.1014 5.80976 14.1014 6.01776V14.3609C14.1014 14.3964 14.0658 14.4302 14.032 14.4302H4.43559C4.40003 14.4302 4.36625 14.3947 4.36625 14.3609V13.2302C4.36625 13.1253 4.27914 13.0222 4.15825 13.0222H3.16803C3.06314 13.0222 2.96003 13.1093 2.96003 13.2302V14.5333C2.96003 15.2462 3.53425 15.8204 4.24714 15.8204H14.2045C14.9174 15.8204 15.4916 15.2462 15.4916 14.5333V5.94665C15.4898 5.63554 15.3689 5.34043 15.1591 5.11465ZM2.19914 9.66932C2.25603 9.80443 2.33603 9.90399 2.43914 9.97154C2.54225 10.0391 2.66492 10.0729 2.80892 10.0729C2.88714 10.0729 2.96003 10.0622 3.02581 10.0427C3.09159 10.0213 3.14848 9.99288 3.19825 9.95199C3.24803 9.91288 3.28892 9.86487 3.3227 9.80799C3.3547 9.7511 3.37781 9.6871 3.39025 9.61421H4.11914C4.10492 9.74576 4.06759 9.87732 4.00536 10.0071C3.94314 10.1369 3.85603 10.2542 3.74403 10.3573C3.63203 10.4622 3.49692 10.5458 3.3387 10.608C3.18048 10.6702 2.99914 10.7022 2.7947 10.7022C2.52448 10.7022 2.28448 10.6435 2.07114 10.5244C1.85781 10.4053 1.6907 10.2329 1.56625 10.0053C1.44003 9.77776 1.37959 9.50221 1.37959 9.1751C1.37959 8.84621 1.44181 8.56888 1.56625 8.33954C1.6907 8.11021 1.85959 7.93776 2.0747 7.81865C2.28803 7.70132 2.52803 7.64088 2.79292 7.64088C2.97248 7.64088 3.13959 7.66576 3.29248 7.71554C3.44536 7.76532 3.58048 7.83821 3.69781 7.93421C3.81514 8.03021 3.90936 8.14754 3.98048 8.28621C4.05336 8.42488 4.09781 8.5831 4.11736 8.76265H3.38848C3.37959 8.68799 3.36003 8.62043 3.32981 8.55999C3.29959 8.49954 3.26048 8.44799 3.20892 8.40532C3.15914 8.36265 3.10048 8.32888 3.0347 8.30576C2.96714 8.28265 2.89248 8.27021 2.8107 8.27021C2.6667 8.27021 2.54225 8.30576 2.43914 8.37687C2.33425 8.44799 2.25425 8.5511 2.19914 8.68443C2.14225 8.81776 2.11559 8.98132 2.11559 9.17154C2.11381 9.37065 2.14225 9.53599 2.19914 9.66932ZM8.41959 7.68176L9.0827 9.86488H9.11114L9.77781 7.68176H10.5814L9.57514 10.6631H8.6187L7.60892 7.68176H8.41959ZM6.34136 9.65154C6.30581 9.61243 6.25425 9.57688 6.18492 9.54665C6.11559 9.51643 6.02492 9.48976 5.91648 9.46488L5.60181 9.39199C5.34581 9.33332 5.14314 9.23732 4.99559 9.10576C4.84803 8.97243 4.77336 8.79288 4.77336 8.56354C4.77336 8.37865 4.82314 8.21865 4.9227 8.07999C5.02225 7.94132 5.16092 7.83288 5.33514 7.75643C5.51114 7.67999 5.71203 7.64088 5.93781 7.64088C6.16892 7.64088 6.36981 7.67999 6.54048 7.75821C6.71114 7.83643 6.8427 7.94488 6.93692 8.0871C7.02937 8.22754 7.07914 8.3911 7.08092 8.57599H6.38936C6.38225 8.46932 6.33959 8.38576 6.26314 8.3271C6.1867 8.26843 6.07825 8.23821 5.93781 8.23821C5.84359 8.23821 5.76714 8.25065 5.70492 8.27376C5.6427 8.29865 5.59648 8.33065 5.56448 8.37332C5.53248 8.41599 5.51825 8.46399 5.51825 8.51732C5.51825 8.57599 5.53603 8.62576 5.56981 8.66665C5.60359 8.70754 5.65514 8.7431 5.72092 8.77154C5.7867 8.79999 5.86492 8.8231 5.95381 8.84443L6.20803 8.9031C6.35559 8.9351 6.48536 8.97776 6.59736 9.0311C6.71114 9.08443 6.80714 9.14843 6.88536 9.22132C6.96359 9.29421 7.02225 9.37954 7.06314 9.47554C7.10403 9.57154 7.12359 9.67821 7.12359 9.79732C7.12359 9.98754 7.07736 10.1493 6.98314 10.2844C6.88892 10.4195 6.75381 10.5227 6.57781 10.5955C6.40003 10.6667 6.18848 10.704 5.93959 10.704C5.6907 10.704 5.47203 10.6667 5.28714 10.5902C5.10225 10.5155 4.95648 10.4 4.85336 10.2489C4.75025 10.096 4.69692 9.90399 4.69514 9.6711H5.38314C5.39025 9.76532 5.41692 9.84532 5.46136 9.90932C5.50759 9.97332 5.56981 10.0231 5.64981 10.0569C5.72981 10.0907 5.82225 10.1067 5.92892 10.1067C6.0267 10.1067 6.10848 10.0942 6.17781 10.0658C6.24714 10.0391 6.2987 10.0018 6.33603 9.95554C6.37336 9.90932 6.39292 9.85421 6.39292 9.79376C6.3947 9.73865 6.37692 9.69065 6.34136 9.65154Z" fill="#747C89"/>
</g>
<defs>
<clipPath id="clip0_1850_11588">
<rect width="16" height="16" fill="white"/>
</clipPath>
</defs>
</svg>
