<svg xmlns="http://www.w3.org/2000/svg" width="8" height="14" viewBox="0 0 8 14" fill="none">
  <path d="M0.936735 10.3608H2.10502C2.35346 10.3608 2.59172 10.464 2.76739 10.6476C2.94306 10.8312 3.04176 11.0802 3.04176 11.3398V12.5638C3.04176 12.8235 2.94306 13.0725 2.76739 13.2561C2.59172 13.4397 2.35346 13.5428 2.10502 13.5428H0.936735C0.813641 13.5428 0.691753 13.5175 0.578041 13.4682C0.464329 13.4189 0.361021 13.3468 0.274025 13.2557C0.187029 13.1647 0.118049 13.0567 0.0710303 12.9378C0.0240113 12.8189 -0.000125246 12.6915 4.88721e-07 12.5628V11.3388C0.000254086 11.0794 0.0990574 10.8306 0.274702 10.6472C0.450346 10.4638 0.688463 10.3608 0.936735 10.3608Z" fill="#D2D6DB"/>
  <path d="M0.936735 5.17896H2.10502C2.35346 5.17896 2.59172 5.28208 2.76739 5.46568C2.94306 5.64928 3.04176 5.8983 3.04176 6.15794V7.38194C3.04176 7.51051 3.01753 7.63781 2.97045 7.75659C2.92338 7.87537 2.85438 7.98329 2.76739 8.0742C2.68041 8.16511 2.57714 8.23722 2.46349 8.28642C2.34984 8.33562 2.22804 8.36095 2.10502 8.36095H0.936735C0.813641 8.36095 0.691753 8.33559 0.578041 8.28633C0.464329 8.23707 0.361021 8.16487 0.274025 8.07385C0.187029 7.98284 0.118049 7.8748 0.0710303 7.75591C0.0240113 7.63701 -0.000125246 7.5096 4.88721e-07 7.38095V6.15695C0.000254086 5.89748 0.0990574 5.64871 0.274702 5.46533C0.450346 5.28195 0.688463 5.17895 0.936735 5.17896Z" fill="#D2D6DB"/>
  <path d="M0.936734 0H2.10502C2.35346 0 2.59172 0.103144 2.76739 0.286742C2.94306 0.470341 3.04176 0.719353 3.04176 0.979V2.2C3.04176 2.45965 2.94306 2.70866 2.76739 2.89226C2.59172 3.07586 2.35346 3.179 2.10502 3.179H0.936734C0.688297 3.179 0.450035 3.07586 0.274363 2.89226C0.0986914 2.70866 0 2.45965 0 2.2L0 0.979C0 0.719353 0.0986914 0.470341 0.274363 0.286742C0.450035 0.103144 0.688297 0 0.936734 0Z" fill="#D2D6DB"/>
  <path d="M5.89206 10.3608H7.06322C7.31165 10.3608 7.54992 10.464 7.72559 10.6476C7.90126 10.8312 7.99995 11.0802 7.99995 11.3398V12.5638C7.99995 12.8235 7.90126 13.0725 7.72559 13.2561C7.54992 13.4397 7.31165 13.5428 7.06322 13.5428H5.89206C5.64362 13.5428 5.40536 13.4397 5.22969 13.2561C5.05401 13.0725 4.95532 12.8235 4.95532 12.5638V11.3398C4.95532 11.0802 5.05401 10.8312 5.22969 10.6476C5.40536 10.464 5.64362 10.3608 5.89206 10.3608Z" fill="#D2D6DB"/>
  <path d="M5.89206 5.17896H7.06322C7.31165 5.17896 7.54992 5.28208 7.72559 5.46568C7.90126 5.64928 7.99995 5.8983 7.99995 6.15794V7.38194C7.99995 7.51051 7.97572 7.63781 7.92865 7.75659C7.88157 7.87537 7.81257 7.98329 7.72559 8.0742C7.63861 8.16511 7.53534 8.23722 7.42169 8.28642C7.30804 8.33562 7.18623 8.36095 7.06322 8.36095H5.89206C5.76905 8.36095 5.64724 8.33562 5.53359 8.28642C5.41994 8.23722 5.31667 8.16511 5.22969 8.0742C5.1427 7.98329 5.0737 7.87537 5.02663 7.75659C4.97955 7.63781 4.95532 7.51051 4.95532 7.38194V6.15794C4.95532 5.8983 5.05401 5.64928 5.22969 5.46568C5.40536 5.28208 5.64362 5.17896 5.89206 5.17896Z" fill="#D2D6DB"/>
  <path d="M5.89206 0H7.06322C7.31165 0 7.54992 0.103144 7.72559 0.286742C7.90126 0.470341 7.99995 0.719353 7.99995 0.979V2.2C7.99995 2.45965 7.90126 2.70866 7.72559 2.89226C7.54992 3.07586 7.31165 3.179 7.06322 3.179H5.89206C5.64362 3.179 5.40536 3.07586 5.22969 2.89226C5.05401 2.70866 4.95532 2.45965 4.95532 2.2V0.979C4.95532 0.719353 5.05401 0.470341 5.22969 0.286742C5.40536 0.103144 5.64362 0 5.89206 0Z" fill="#D2D6DB"/>
</svg>