<svg xmlns="http://www.w3.org/2000/svg" width="20" height="20" viewBox="0 0 20 20" fill="none">
  <path fill-rule="evenodd" clip-rule="evenodd" d="M2.5 10C2.5 9.07952 3.24619 8.33333 4.16667 8.33333C5.08714 8.33333 5.83333 9.07952 5.83333 10C5.83333 10.9205 5.08714 11.6667 4.16667 11.6667C3.24619 11.6667 2.5 10.9205 2.5 10ZM8.33333 10C8.33333 9.07952 9.07953 8.33333 10 8.33333C10.9205 8.33333 11.6667 9.07952 11.6667 10C11.6667 10.9205 10.9205 11.6667 10 11.6667C9.07953 11.6667 8.33333 10.9205 8.33333 10ZM14.1667 10C14.1667 9.07952 14.9129 8.33333 15.8333 8.33333C16.7538 8.33333 17.5 9.07952 17.5 10C17.5 10.9205 16.7538 11.6667 15.8333 11.6667C14.9129 11.6667 14.1667 10.9205 14.1667 10Z" fill="#747C89"/>
</svg>