<svg width="105" height="105" viewBox="0 0 105 105" fill="none" xmlns="http://www.w3.org/2000/svg">
<path d="M49.2188 22.9688C49.2188 22.0985 48.873 21.2639 48.2577 20.6486C47.6423 20.0332 46.8077 19.6875 45.9375 19.6875H13.125C12.2548 19.6875 11.4202 20.0332 10.8048 20.6486C10.1895 21.2639 9.84375 22.0985 9.84375 22.9688V85.3125C9.84375 86.1827 10.1895 87.0173 10.8048 87.6327C11.4202 88.248 12.2548 88.5938 13.125 88.5938H90.2344C91.1046 88.5938 91.9392 88.248 92.5546 87.6327C93.1699 87.0173 93.5156 86.1827 93.5156 85.3125V29.5312C93.5156 28.661 93.1699 27.8264 92.5546 27.2111C91.9392 26.5957 91.1046 26.25 90.2344 26.25H52.5C51.6298 26.25 50.7952 25.9043 50.1798 25.2889C49.5645 24.6736 49.2188 23.839 49.2188 22.9688Z" fill="url(#paint0_linear_1052_3665)"/>
<path d="M100.078 37.7344H22.9688C22.0985 37.7344 21.2639 38.0801 20.6486 38.6954C20.0332 39.3108 19.6875 40.1454 19.6875 41.0156L9.84375 85.3125C9.84375 86.1827 10.1895 87.0173 10.8048 87.6327C11.4202 88.2481 12.2548 88.5938 13.125 88.5938H90.2344C91.1046 88.5938 91.9392 88.2481 92.5546 87.6327C93.1699 87.0173 93.5156 86.1827 93.5156 85.3125L103.359 41.0156C103.359 40.1454 103.014 39.3108 102.398 38.6954C101.783 38.0801 100.948 37.7344 100.078 37.7344Z" fill="#E5E7EB"/>
<path d="M30.7453 37.7344H22.9688C22.0985 37.7344 21.2639 38.0801 20.6486 38.6954C20.0332 39.3108 19.6875 40.1454 19.6875 41.0156L9.84375 85.3125C9.84375 86.1827 10.1895 87.0173 10.8048 87.6327C11.4202 88.2481 12.2548 88.5938 13.125 88.5938H21.7547L30.7453 37.7344Z" fill="#D2D6DB"/>
<path d="M52.2703 70.5469C53.3899 69.4781 54.7141 68.6466 56.1633 68.1024C57.6124 67.5583 59.1566 67.3127 60.7031 67.3805C62.2387 67.3217 63.7704 67.5716 65.2077 68.1155C66.6449 68.6594 67.9584 69.4862 69.0703 70.5469" stroke="#A1A9B2" stroke-width="2" stroke-linecap="round" stroke-linejoin="round"/>
<path d="M73.8281 59.0625C75.6403 59.0625 77.1094 57.5934 77.1094 55.7812C77.1094 53.9691 75.6403 52.5 73.8281 52.5C72.0159 52.5 70.5469 53.9691 70.5469 55.7812C70.5469 57.5934 72.0159 59.0625 73.8281 59.0625Z" fill="#A1A9B2"/>
<path d="M49.2188 59.0625C51.0309 59.0625 52.5 57.5934 52.5 55.7812C52.5 53.9691 51.0309 52.5 49.2188 52.5C47.4066 52.5 45.9375 53.9691 45.9375 55.7812C45.9375 57.5934 47.4066 59.0625 49.2188 59.0625Z" fill="#A1A9B2"/>
<path d="M42.6562 65.625C44.4684 65.625 45.9375 64.1559 45.9375 62.3438C45.9375 60.5316 44.4684 59.0625 42.6562 59.0625C40.8441 59.0625 39.375 60.5316 39.375 62.3438C39.375 64.1559 40.8441 65.625 42.6562 65.625Z" fill="#D2D6DB"/>
<path d="M80.3906 65.625C82.2028 65.625 83.6719 64.1559 83.6719 62.3438C83.6719 60.5316 82.2028 59.0625 80.3906 59.0625C78.5784 59.0625 77.1094 60.5316 77.1094 62.3438C77.1094 64.1559 78.5784 65.625 80.3906 65.625Z" fill="#D2D6DB"/>
<defs>
<linearGradient id="paint0_linear_1052_3665" x1="51.6797" y1="19.6875" x2="51.6797" y2="88.5938" gradientUnits="userSpaceOnUse">
<stop stop-color="#F9FAFB"/>
<stop offset="1" stop-color="#D2D6DB"/>
</linearGradient>
</defs>
</svg>
