<svg xmlns="http://www.w3.org/2000/svg" width="20" height="20" viewBox="0 0 20 20" fill="none">
  <path fill-rule="evenodd" clip-rule="evenodd" d="M5.63224 2.5H14.3677C15.0385 2.49999 15.5922 2.49998 16.0432 2.53683C16.5116 2.5751 16.9422 2.65724 17.3466 2.86331C17.9738 3.18289 18.4838 3.69283 18.8033 4.32003C19.0022 4.71032 19.0857 5.12495 19.1256 5.57442C19.1702 5.71059 19.178 5.85421 19.1515 5.99133C19.1667 6.36643 19.1667 6.80029 19.1667 7.2989V12.7011C19.1667 13.3719 19.1667 13.9255 19.1298 14.3765C19.0916 14.8449 19.0094 15.2755 18.8033 15.68C18.4838 16.3072 17.9738 16.8171 17.3466 17.1367C16.9422 17.3428 16.5116 17.4249 16.0432 17.4632C15.5922 17.5 15.0386 17.5 14.3678 17.5H5.63222C4.96142 17.5 4.40779 17.5 3.9568 17.4632C3.48839 17.4249 3.0578 17.3428 2.65336 17.1367C2.02615 16.8171 1.51621 16.3072 1.19664 15.68C0.990559 15.2755 0.908422 14.8449 0.870151 14.3765C0.833304 13.9255 0.833312 13.3719 0.833323 12.7011V7.29892C0.833315 6.80031 0.833308 6.36643 0.848437 5.99133C0.821974 5.85421 0.829785 5.71058 0.874336 5.57441C0.914327 5.12494 0.997775 4.71032 1.19664 4.32003C1.51621 3.69283 2.02615 3.18289 2.65336 2.86331C3.0578 2.65724 3.48839 2.5751 3.9568 2.53683C4.4078 2.49998 4.96143 2.49999 5.63224 2.5ZM2.49999 7.43388V12.6667C2.49999 13.3805 2.50064 13.8657 2.53128 14.2408C2.56113 14.6061 2.61524 14.793 2.68165 14.9233C2.84143 15.2369 3.0964 15.4919 3.41001 15.6517C3.54034 15.7181 3.72718 15.7722 4.09252 15.802C4.4676 15.8327 4.95284 15.8333 5.66666 15.8333H14.3333C15.0471 15.8333 15.5324 15.8327 15.9075 15.802C16.2728 15.7722 16.4596 15.7181 16.59 15.6517C16.9036 15.4919 17.1585 15.2369 17.3183 14.9233C17.3847 14.793 17.4388 14.6061 17.4687 14.2408C17.4993 13.8657 17.5 13.3805 17.5 12.6667V7.43388L12.0071 11.2789C11.9748 11.3015 11.9427 11.324 11.911 11.3463C11.4571 11.665 11.0586 11.9449 10.6047 12.058C10.2076 12.157 9.79236 12.157 9.39532 12.058C8.94141 11.9449 8.54287 11.665 8.08899 11.3463C8.05724 11.324 8.02521 11.3015 7.99287 11.2789L2.49999 7.43388ZM17.431 5.44774L11.0513 9.91351C10.4439 10.3387 10.3152 10.4125 10.2015 10.4408C10.0692 10.4738 9.93078 10.4738 9.79843 10.4408C9.68479 10.4125 9.55609 10.3387 8.94864 9.91351L2.56896 5.44774C2.59873 5.2751 2.63747 5.16339 2.68165 5.07668C2.84143 4.76308 3.0964 4.50811 3.41001 4.34832C3.54034 4.28192 3.72718 4.22781 4.09252 4.19796C4.4676 4.16732 4.95284 4.16667 5.66666 4.16667H14.3333C15.0471 4.16667 15.5324 4.16732 15.9075 4.19796C16.2728 4.22781 16.4596 4.28192 16.59 4.34832C16.9036 4.50811 17.1585 4.76308 17.3183 5.07668C17.3625 5.16339 17.4012 5.2751 17.431 5.44774Z" fill="#5E53F9"/>
</svg>