<svg xmlns="http://www.w3.org/2000/svg" width="60" height="60" viewBox="0 0 60 60" fill="none">
  <path fill-rule="evenodd" clip-rule="evenodd" d="M6.13265 49.6664C6.12399 49.6664 6.11532 49.6665 6.10658 49.6665C4.44447 49.6008 2.89677 48.8736 1.74858 47.6183C0.620971 46.3847 0 44.78 0 43.1003V9.58317C0 7.9675 1.26393 6.63035 2.87752 6.54028C3.4025 6.51159 3.81378 6.07636 3.81378 5.55099V2.30202C3.81378 1.03295 4.84622 7.8497e-05 6.11536 7.8497e-05L16.4616 0C17.5176 0 18.4354 0.71645 18.6934 1.73984L19.7132 5.78702C19.826 6.23452 20.2125 6.53616 20.6748 6.53616L43.2847 6.53612C44.9651 6.53612 46.3324 7.90345 46.3324 9.5832L46.3324 14.4327C46.3324 14.7942 46.0392 15.0877 45.6774 15.0877C45.3157 15.0877 45.0225 14.7944 45.0225 14.4328V9.58317C45.0225 8.62527 44.2429 7.84615 43.2847 7.84615L20.6748 7.84603C19.6186 7.84603 18.7008 7.13115 18.4428 6.10639L17.4232 2.06038C17.3102 1.61155 16.9238 1.31006 16.4616 1.31006H6.11536C5.56855 1.31006 5.12368 1.75485 5.12368 2.30202V5.55095C5.12368 6.77086 4.16893 7.78065 2.95015 7.84889C2.03051 7.89934 1.31006 8.66215 1.31006 9.5832V43.1003C1.31006 45.8948 3.48469 48.2527 6.15773 48.3565C6.51919 48.3714 6.80073 48.6758 6.78662 49.0374C6.77286 49.3893 6.48254 49.6665 6.13265 49.6664Z" fill="#D2D6DB"/>
  <path fill-rule="evenodd" clip-rule="evenodd" d="M6.24674 49.668C6.20484 49.668 6.1631 49.668 6.12124 49.6667C5.76162 49.6611 5.47421 49.3665 5.47722 49.0062C5.4802 48.6473 5.77248 48.3567 6.1321 48.3567L6.34062 48.3565C8.81584 48.313 11.484 46.6811 11.7913 43.9274L14.7999 16.9669C14.9711 15.4332 16.1925 13.778 17.8675 13.778L51.0343 13.7779C51.9614 13.7779 52.8716 14.1956 53.469 14.8942C53.9733 15.4849 54.1882 16.2069 54.0739 16.9274L51.445 33.5201C51.3884 33.8776 51.0522 34.1205 50.6957 34.0645C50.3383 34.0072 50.0946 33.6716 50.1512 33.314L52.7803 16.7226C52.8484 16.2927 52.6508 15.953 52.4729 15.7457C52.1263 15.3389 51.575 15.088 51.0343 15.088H17.8675C16.9601 15.088 16.2088 16.155 16.1018 17.1129L13.0931 44.0733C12.9114 45.7027 12.054 47.1696 10.6789 48.2053C10.6105 48.2571 10.5413 48.3076 10.4711 48.3567L32.8601 48.3553C33.2219 48.3553 33.5152 48.6487 33.5152 49.0103C33.5152 49.3719 33.2219 49.6653 32.8602 49.6653L6.36727 49.6666C6.32717 49.668 6.28692 49.668 6.24674 49.668Z" fill="#D2D6DB"/>
  <path fill-rule="evenodd" clip-rule="evenodd" d="M18.4717 42.369H27.7009L28.2955 39.2961H19.0664L18.4717 42.369ZM28.2414 43.6791H17.6778C17.4824 43.6791 17.2971 43.5917 17.1727 43.4403C17.0483 43.2901 16.9976 43.091 17.0348 42.8985L17.8829 38.5156C17.9424 38.2086 18.2122 37.9862 18.5259 37.9862L29.0894 37.9861C29.2848 37.9861 29.4701 38.0736 29.5946 38.2237C29.719 38.375 29.7697 38.573 29.7324 38.7654L28.8844 43.1482C28.8249 43.4566 28.5551 43.6791 28.2414 43.6791Z" fill="#D2D6DB"/>
  <path fill-rule="evenodd" clip-rule="evenodd" d="M45.9235 33.1582C38.8847 33.1582 33.1581 38.8853 33.1581 45.9235C33.1582 52.9631 38.8847 58.6901 45.9235 58.6901C52.9625 58.69 58.6891 52.9632 58.6891 45.9235C58.6892 38.8852 52.9625 33.1583 45.9235 33.1582ZM45.9235 60C38.1623 60 31.8482 53.685 31.8482 45.9235C31.8482 38.1634 38.1623 31.8483 45.9235 31.8483C53.6849 31.8483 59.9991 38.1634 59.9991 45.9235C59.9991 53.685 53.6849 60.0001 45.9235 60Z" fill="#D2D6DB"/>
  <path fill-rule="evenodd" clip-rule="evenodd" d="M45.9235 47.816C46.0972 47.816 46.2639 47.8857 46.3867 48.0085L50.372 51.9929L51.9928 50.3718L48.0076 46.3874C47.7519 46.1309 47.7519 45.7175 48.0076 45.4609L51.9928 41.4765L50.372 39.8554L46.3867 43.8398C46.2639 43.9626 46.0972 44.0323 45.9235 44.0323C45.7498 44.0323 45.5832 43.9627 45.4604 43.8399L41.4753 39.8554L39.8543 41.4765L43.8396 45.4608C44.0953 45.7174 44.0953 46.131 43.8396 46.3875L39.8543 50.3718L41.4753 51.9929L45.4604 48.0085C45.5832 47.8857 45.7498 47.8161 45.9235 47.816ZM41.4753 53.5745C41.3016 53.5745 41.135 53.5062 41.0121 53.3835L38.465 50.8358C38.2092 50.5791 38.2092 50.1659 38.4649 49.9093L42.4502 45.9235L38.465 41.939C38.2092 41.6825 38.2092 41.2691 38.4649 41.0126L41.0122 38.4649C41.135 38.3421 41.3016 38.2739 41.4753 38.2739C41.649 38.2739 41.8156 38.3421 41.9384 38.465L45.9235 42.4508L49.9088 38.4649C50.1645 38.2097 50.5793 38.2098 50.835 38.465L53.3822 41.0126C53.6379 41.2691 53.6379 41.6826 53.3822 41.9391L49.3969 45.9235L53.3822 49.9093C53.6379 50.1658 53.6379 50.5793 53.3822 50.8359L50.835 53.3833C50.5793 53.6386 50.1645 53.6386 49.9088 53.3835L45.9235 49.3976L41.9384 53.3833C41.8156 53.5061 41.649 53.5745 41.4753 53.5745Z" fill="#D2D6DB"/>
</svg>