<svg xmlns="http://www.w3.org/2000/svg" width="20" height="20" viewBox="0 0 20 20" fill="none">
  <path d="M11.9083 15.6917L10.0666 16.0583C9.95831 16.0833 9.84165 16.0917 9.74165 16.0917C9.24165 16.0917 8.76665 15.875 8.44998 15.4833C8.13331 15.1 8.00831 14.5917 8.10831 14.1L8.47498 12.2583C8.58331 11.6917 8.85831 11.1833 9.27498 10.7667L14.2166 5.825C14.3916 5.65 14.5833 5.5 14.7916 5.375V4.16667C14.7916 2.9 13.8166 1.875 12.6166 1.875H4.88331C3.68331 1.875 2.70831 2.9 2.70831 4.16667V15.8333C2.70831 17.1 3.68331 18.125 4.88331 18.125H12.6166C13.8166 18.125 14.7916 17.1 14.7916 15.8333V13.5L13.3916 14.9C12.9833 15.3083 12.475 15.5833 11.9083 15.6917ZM5.83331 5.20833H11.6666C12.0116 5.20833 12.2916 5.48833 12.2916 5.83333C12.2916 6.17833 12.0116 6.45833 11.6666 6.45833H5.83331C5.48831 6.45833 5.20831 6.17833 5.20831 5.83333C5.20831 5.48833 5.48831 5.20833 5.83331 5.20833ZM5.20831 8.33333C5.20831 7.98833 5.48831 7.70833 5.83331 7.70833H9.99998C10.345 7.70833 10.625 7.98833 10.625 8.33333C10.625 8.67833 10.345 8.95833 9.99998 8.95833H5.83331C5.48831 8.95833 5.20831 8.67833 5.20831 8.33333ZM17.4583 9.06583L12.5116 14.0125C12.2791 14.245 11.9825 14.4033 11.66 14.4683L9.82165 14.8358C9.52998 14.8942 9.27331 14.6367 9.33165 14.3458L9.69915 12.5075C9.76331 12.185 9.92248 11.8883 10.155 11.6558L15.1016 6.70917C15.7525 6.05833 16.8075 6.05833 17.4583 6.70917C18.1091 7.36 18.1091 8.415 17.4583 9.06583Z" fill="#5E53F9"/>
</svg>