<svg xmlns="http://www.w3.org/2000/svg" width="142" height="46" viewBox="0 0 142 46" fill="none">
  <path d="M39.6188 16.5113C38.9463 16.2121 38.1618 16.343 37.6201 16.8292L35.4159 18.8861V16.904C35.4159 16.7918 35.4159 16.6983 35.4159 16.5861C35.2478 12.8463 32.1844 9.91052 28.4299 9.91052H19.5385C19.5385 9.91052 19.5385 9.91052 19.5198 9.91052C15.6719 9.91052 12.5338 13.052 12.5525 16.904V25.8048C12.5525 29.0211 14.7379 31.826 17.8574 32.5926V34.7617C17.8574 34.9674 17.9134 35.1731 17.9881 35.3414C18.3057 35.9959 19.1089 36.2577 19.7627 35.9398L25.9642 32.8357L27.8882 32.7983H28.4299C28.598 32.7983 28.7474 32.7983 28.9155 32.7796C29.1957 32.7609 29.4946 32.7235 29.7748 32.6674C32.9502 32.0504 35.2665 29.339 35.4159 26.1227C35.4159 26.0105 35.4159 25.917 35.4159 25.8048V24.6455L37.6387 26.7024C37.975 27.0203 38.4233 27.1886 38.8903 27.1886C39.1518 27.1886 39.3946 27.1325 39.6374 27.0203C40.2912 26.7585 40.7208 26.1227 40.7208 25.4121V18.1008C40.7208 17.4089 40.2725 16.7731 39.6188 16.5113ZM24.638 29.3016L21.7053 30.7788C21.6306 30.8162 21.5559 30.8349 21.4812 30.8349C21.201 30.8349 20.9768 30.6105 20.9768 30.33V28.7219C18.0815 27.5065 16.2136 24.6829 16.2136 21.5414C16.2136 17.2406 19.7066 13.7439 24.0029 13.7439C28.0563 13.7439 31.4185 16.8479 31.7548 20.8869C32.1097 25.1878 28.9155 28.9463 24.638 29.3016Z" fill="#1A1A1A"/>
  <path d="M27.5147 22.8877C28.1337 22.8877 28.6354 22.3854 28.6354 21.7658C28.6354 21.1461 28.1337 20.6438 27.5147 20.6438C26.8957 20.6438 26.3939 21.1461 26.3939 21.7658C26.3939 22.3854 26.8957 22.8877 27.5147 22.8877Z" fill="#1A1A1A"/>
  <path d="M23.9283 22.8877C24.5472 22.8877 25.049 22.3854 25.049 21.7658C25.049 21.1461 24.5472 20.6438 23.9283 20.6438C23.3093 20.6438 22.8075 21.1461 22.8075 21.7658C22.8075 22.3854 23.3093 22.8877 23.9283 22.8877Z" fill="#1A1A1A"/>
  <path d="M20.6191 22.8555C21.2215 22.7131 21.5945 22.1088 21.4523 21.5058C21.3101 20.9028 20.7064 20.5293 20.104 20.6717C19.5016 20.8141 19.1286 21.4184 19.2709 22.0214C19.4131 22.6245 20.0167 22.9979 20.6191 22.8555Z" fill="#1A1A1A"/>
  <path d="M49.799 22.2894H55.3467V27.6561H58.0926V14.417H55.3467V19.6528H49.799V14.417H47.0718V27.6561H49.8176V22.2894H49.799ZM69.4683 23.8601C69.4869 23.6544 69.5056 23.3365 69.5056 22.9065C69.5616 21.691 69.0947 20.513 68.2541 19.6341C67.3948 18.7926 66.2181 18.3439 65.0039 18.3813C63.7337 18.3626 62.5196 18.8674 61.6229 19.765C60.7077 20.6252 60.2033 21.8406 60.222 23.0935C60.1846 24.3837 60.7077 25.6365 61.6416 26.5154C62.613 27.3943 63.8645 27.8617 65.172 27.843C66.7598 27.9739 68.2728 27.1886 69.0573 25.8048L67.152 24.552C66.7037 25.2252 65.9565 25.6365 65.1347 25.6365C64.0513 25.7113 63.0799 24.9447 62.9118 23.8601H69.4683ZM62.9679 22.1211C63.0426 21.7097 63.2667 21.3357 63.5843 21.0739C63.9392 20.7187 64.4248 20.5317 64.9292 20.5504C65.8818 20.4569 66.7411 21.1674 66.8531 22.1211H62.9679ZM74.026 13.8748H71.3735V27.6561H74.026V13.8748ZM79.0694 18.6243H76.4543V32.1252H79.0881V26.665H79.1255C79.7792 27.4504 80.7692 27.8804 81.7966 27.843C82.9921 27.8617 84.1502 27.3382 84.916 26.4219C85.7192 25.5244 86.1675 24.3463 86.1489 23.1309C86.1489 21.9341 85.7379 20.7935 84.9534 19.8772C84.2062 18.9422 83.0481 18.4187 81.8526 18.4561C80.7692 18.4 79.7419 18.8674 79.1068 19.7463H79.0694V18.6243ZM79.0321 23.1122C79.0134 22.4951 79.2562 21.9154 79.6858 21.4666C80.0968 21.0365 80.6758 20.8122 81.2549 20.8309C81.8526 20.8122 82.4317 21.0552 82.8426 21.4666C83.2909 21.8967 83.5151 22.4951 83.4964 23.1122C83.5151 23.7292 83.2909 24.3463 82.8613 24.7951C82.4504 25.2252 81.8713 25.4496 81.2736 25.4309C80.6758 25.4496 80.0968 25.2065 79.6858 24.7951C79.2375 24.3463 79.0134 23.7479 79.0321 23.1122ZM90.3517 21.0178C90.3144 19.8959 90.744 18.8113 91.5285 18.0073C92.2757 17.2219 93.3217 16.7731 94.4238 16.7918C95.2457 16.7544 96.0676 16.9975 96.7213 17.5024C97.2817 17.9138 97.7113 18.4748 97.9729 19.1292L100.382 17.9512C99.9529 16.904 99.243 16.0065 98.3091 15.3707C97.1883 14.5853 95.8247 14.1739 94.4612 14.2113C92.6306 14.1739 90.8747 14.9032 89.5859 16.1935C88.2783 17.465 87.5498 19.2227 87.5872 21.0552C87.5498 22.8691 88.2409 24.6081 89.4925 25.917C90.8 27.226 92.5932 27.9365 94.4425 27.8804C96.6093 27.9739 98.664 26.8894 99.8034 25.0382C100.42 23.991 100.737 22.7943 100.719 21.5975V20.5691H93.8447V23.0561H97.8608C97.5246 24.3837 96.1983 25.2813 94.4425 25.2813C93.3404 25.3187 92.2757 24.8699 91.5098 24.0471C90.744 23.2057 90.333 22.1398 90.3517 21.0178ZM111.216 23.8601C111.235 23.6544 111.254 23.3365 111.254 22.9065C111.31 21.691 110.843 20.513 110.002 19.6341C109.143 18.7926 107.966 18.3439 106.752 18.3813C105.482 18.3626 104.268 18.8674 103.371 19.765C102.456 20.6252 101.952 21.8406 101.97 23.0935C101.933 24.3837 102.456 25.6365 103.39 26.5154C104.361 27.3943 105.613 27.8617 106.92 27.843C108.508 27.9739 110.021 27.1886 110.806 25.8048L108.9 24.552C108.452 25.2252 107.705 25.6365 106.883 25.6365C105.799 25.7113 104.828 24.9447 104.66 23.8601H111.216ZM104.735 22.1211C104.809 21.7097 105.034 21.3357 105.351 21.0739C105.706 20.7187 106.192 20.5317 106.696 20.5504C107.649 20.4569 108.508 21.1674 108.62 22.1211H104.735ZM121.583 27.6561V22.0463C121.621 21.13 121.322 20.2138 120.762 19.4845C120.164 18.7739 119.267 18.3813 118.333 18.4561C117.754 18.4374 117.175 18.6056 116.671 18.9235C116.297 19.1292 115.98 19.4284 115.774 19.8024H115.756V18.6243H113.14V27.6561H115.774V22.6447C115.681 21.7845 116.297 20.9991 117.175 20.887C117.25 20.887 117.325 20.8683 117.399 20.887C118.427 20.887 118.968 21.5788 118.968 22.6447V27.6561H121.583ZM129.41 25.4309C129.205 25.487 128.999 25.5056 128.794 25.5056C127.766 25.5056 127.225 25.0943 127.225 24.0658V20.9244H129.447V18.6243H127.225V15.8008H124.628V18.6243H122.966V20.9057H124.591V24.365C124.591 26.478 125.824 27.7683 128.177 27.7683C128.588 27.7683 129.018 27.7122 129.41 27.6V25.4309Z" fill="#1A1A1A"/>
</svg>