<svg xmlns="http://www.w3.org/2000/svg" width="20" height="20" viewBox="0 0 20 20" fill="none">
  <path fill-rule="evenodd" clip-rule="evenodd" d="M10 2.49992C6.77834 2.49992 4.16667 5.11159 4.16667 8.33325C4.16667 9.91 4.87764 11.3983 6.0769 12.9555C7.08951 14.2703 8.38561 15.556 9.7769 16.936C9.851 17.0095 9.92538 17.0833 10 17.1573C10.0746 17.0833 10.149 17.0095 10.2231 16.936C11.6144 15.556 12.9105 14.2703 13.9231 12.9555C15.1224 11.3983 15.8333 9.91 15.8333 8.33325C15.8333 5.11159 13.2217 2.49992 10 2.49992ZM2.5 8.33325C2.5 4.19112 5.85786 0.833252 10 0.833252C14.1421 0.833252 17.5 4.19112 17.5 8.33325C17.5 10.4384 16.5443 12.2834 15.2436 13.9724C14.1566 15.3838 12.7654 16.7629 11.3757 18.1406C11.1128 18.4012 10.85 18.6618 10.5893 18.9225C10.2638 19.2479 9.73618 19.2479 9.41074 18.9225C9.15003 18.6618 8.88719 18.4012 8.62431 18.1406C7.23456 16.7629 5.84337 15.3838 4.75643 13.9724C3.45569 12.2834 2.5 10.4384 2.5 8.33325ZM10 6.66658C9.07953 6.66658 8.33333 7.41278 8.33333 8.33325C8.33333 9.25373 9.07953 9.99992 10 9.99992C10.9205 9.99992 11.6667 9.25373 11.6667 8.33325C11.6667 7.41278 10.9205 6.66658 10 6.66658ZM6.66667 8.33325C6.66667 6.4923 8.15905 4.99992 10 4.99992C11.8409 4.99992 13.3333 6.4923 13.3333 8.33325C13.3333 10.1742 11.8409 11.6666 10 11.6666C8.15905 11.6666 6.66667 10.1742 6.66667 8.33325Z" fill="#5E53F9"/>
</svg>