<svg xmlns="http://www.w3.org/2000/svg" width="18" height="14" viewBox="0 0 18 14" fill="none">
  <path fill-rule="evenodd" clip-rule="evenodd" d="M14 5.54163C11.815 5.54163 10.0417 7.31496 10.0417 9.49996C10.0417 11.685 11.815 13.4583 14 13.4583C16.185 13.4583 17.9584 11.685 17.9584 9.49996C17.9584 7.31496 16.185 5.54163 14 5.54163ZM12.3792 10.3583L13.2125 11.1916C13.3392 11.3183 13.5125 11.3841 13.6909 11.3741C13.8684 11.3633 14.0342 11.2783 14.1442 11.1383L15.74 9.12663C15.9542 8.85579 15.9084 8.46246 15.6384 8.24829C15.3684 8.03413 14.9742 8.07913 14.76 8.34996L13.6009 9.81246L13.2634 9.47496C13.0192 9.23079 12.6234 9.23079 12.3792 9.47496C12.1359 9.71829 12.1359 10.115 12.3792 10.3583Z" fill="#A1A9B2"/>
  <path fill-rule="evenodd" clip-rule="evenodd" d="M12.0442 5.12496H0.041687V10.3333C0.041687 10.9408 0.283354 11.5241 0.71252 11.9541C1.14252 12.3833 1.72585 12.625 2.33335 12.625H10.3684C9.64585 11.7858 9.20835 10.6933 9.20835 9.49996C9.20835 7.55163 10.3734 5.87413 12.0442 5.12496ZM5.66752 8.87496H3.16669C2.82169 8.87496 2.54169 9.15496 2.54169 9.49996C2.54169 9.84496 2.82169 10.125 3.16669 10.125H5.66752C6.01252 10.125 6.29252 9.84496 6.29252 9.49996C6.29252 9.15496 6.01252 8.87496 5.66752 8.87496ZM0.041687 3.87496H16.2917V2.83329C16.2917 2.22579 16.05 1.64246 15.6209 1.21246C15.1909 0.783293 14.6075 0.541626 14 0.541626C11.1142 0.541626 5.21919 0.541626 2.33335 0.541626C1.72585 0.541626 1.14252 0.783293 0.71252 1.21246C0.283354 1.64246 0.041687 2.22579 0.041687 2.83329V3.87496Z" fill="#A1A9B2"/>
</svg>