<svg width="16" height="16" viewBox="0 0 16 16" fill="none" xmlns="http://www.w3.org/2000/svg">
<g clip-path="url(#clip0_1850_11594)">
<path d="M15.1359 5.11465L10.6683 0.542209C10.4425 0.298654 10.1456 0.177765 9.81676 0.177765H4.23631C3.52343 0.177765 2.9492 0.751987 2.9492 1.46488V6.39288H1.60876C1.01498 6.39288 0.533203 6.87465 0.533203 7.46843V10.88C0.533203 11.4738 1.01498 11.9555 1.60876 11.9555H10.3981C10.9919 11.9555 11.4736 11.4738 11.4736 10.88V7.46665C11.4736 6.87288 10.9919 6.3911 10.3981 6.3911H4.3412V1.63732C4.3412 1.60176 4.37676 1.56799 4.41054 1.56799H9.74743C9.95543 1.56799 10.1296 1.74221 10.1296 1.95021V4.34843C10.1296 5.06132 10.7039 5.63554 11.4168 5.63554H13.6941C13.9021 5.63554 14.0763 5.80976 14.0763 6.01776V14.3609C14.0763 14.3964 14.0408 14.4302 14.007 14.4302H4.41054C4.37498 14.4302 4.3412 14.3947 4.3412 14.3609V13.2302C4.3412 13.1253 4.25409 13.0222 4.1332 13.0222H3.14298C3.03809 13.0222 2.93498 13.1093 2.93498 13.2302V14.5333C2.93498 15.2462 3.5092 15.8204 4.22209 15.8204H14.183C14.8959 15.8204 15.4701 15.2462 15.4701 14.5333V5.94665C15.4648 5.63554 15.3439 5.34043 15.1359 5.11465ZM4.05498 9.2551C3.96431 9.41154 3.83276 9.53243 3.66387 9.61776C3.49498 9.7031 3.29409 9.74754 3.06476 9.74754H2.56698V10.6862H1.83809V7.65865H3.08609C3.31365 7.65865 3.5092 7.7031 3.67454 7.79021C3.83987 7.8791 3.96787 8.00176 4.05854 8.15999C4.1492 8.31821 4.19365 8.50132 4.19365 8.70932C4.19187 8.91732 4.14742 9.10043 4.05498 9.2551ZM8.10298 7.65865H10.1688V8.25421H8.83187V9.01154H10.0372V9.59288H8.83187V10.6862H8.10298V7.65865ZM4.80876 7.65865H5.10743H5.53765H5.9252C6.23454 7.65865 6.49942 7.7191 6.72342 7.83999C6.94565 7.96088 7.11809 8.1351 7.23898 8.36088C7.35987 8.58665 7.42031 8.85688 7.42031 9.17154C7.42031 9.48621 7.35987 9.75643 7.23898 9.98399C7.11809 10.2115 6.94742 10.384 6.72342 10.5049C6.5012 10.6258 6.23454 10.6862 5.92698 10.6862H5.53765H5.11987H4.80876V7.65865Z" fill="#747C89"/>
<path d="M6.33049 9.97688C6.44782 9.91999 6.53849 9.82577 6.59893 9.69599C6.65938 9.56621 6.6896 9.39199 6.6896 9.17332C6.6896 8.95465 6.65938 8.78043 6.59893 8.65065C6.53849 8.52088 6.44782 8.42665 6.32693 8.36977C6.20782 8.31288 6.06026 8.28265 5.88426 8.28265H5.5376V10.0622H5.89671C6.06915 10.0622 6.21315 10.0338 6.33049 9.97688Z" fill="#747C89"/>
<path d="M3.20512 8.30575C3.13045 8.26842 3.03623 8.25064 2.92601 8.25064H2.56689V9.17153H2.92778C3.03801 9.17153 3.13045 9.15197 3.20512 9.11286C3.27978 9.07375 3.33667 9.02042 3.37578 8.95109C3.41489 8.88175 3.43445 8.80175 3.43445 8.70931C3.43445 8.61509 3.41489 8.53331 3.37578 8.46397C3.33845 8.39642 3.28156 8.34309 3.20512 8.30575Z" fill="#747C89"/>
</g>
<defs>
<clipPath id="clip0_1850_11594">
<rect width="16" height="16" fill="white"/>
</clipPath>
</defs>
</svg>
