<svg xmlns="http://www.w3.org/2000/svg" width="16" height="16" viewBox="0 0 16 16">
  <path id="pen-nib" d="M15.708,4.959a1,1,0,0,0-1.414,0l-.959.959L10.082,2.666l.959-.959A1,1,0,1,0,9.627.293L8.106,1.814,4.551,3.236A3.759,3.759,0,0,0,2.328,5.681L.086,13.32a2.09,2.09,0,0,0,2.594,2.594l7.639-2.241a3.757,3.757,0,0,0,2.445-2.223L14.187,7.9l1.521-1.521a1,1,0,0,0,0-1.414Zm-4.8,5.748a1.769,1.769,0,0,1-1.152,1.047l-5.8,1.7,2.811-2.811A1.63,1.63,0,0,0,7,10.666,1.667,1.667,0,1,0,5.334,9a1.62,1.62,0,0,0,.023.229L2.547,12.04l1.7-5.8A1.77,1.77,0,0,1,5.293,5.093L8.427,3.839l3.734,3.734-1.253,3.133Z" transform="translate(-0.001 0)" fill="#6e6e6e"/>
</svg>
