<svg xmlns="http://www.w3.org/2000/svg" width="30" height="30" viewBox="0 0 30 30">
  <g id="Group_2618" data-name="Group 2618" transform="translate(-799.747 -303.229)">
    <path id="Path_1478" data-name="Path 1478" d="M34.212,18.337l-.937.937a10.781,10.781,0,0,0-3.712-.65A10.952,10.952,0,0,0,18.626,29.55a10.756,10.756,0,0,0,.651,3.709L17.75,34.784l-3.313-3.31L11.2,28.239l.1-.1L26.959,12.5l.688-.687,3.163,3.147L34.2,18.322l.013.015ZM10.678,29.485,8.051,36.721a.96.96,0,0,0,.225.987.976.976,0,0,0,.986.225l7.243-2.624-5.827-5.824ZM36.6,9.332a4.829,4.829,0,0,0-3.287-1.349,4.633,4.633,0,0,0-3.262,1.386l-1.526,1.557.007.006,3.163,3.147,3.386,3.357.006.007,1.551-1.581a4.562,4.562,0,0,0,1.337-3.235v-.051A4.522,4.522,0,0,0,36.6,9.332Z" transform="translate(791.748 295.246)"/>
    <path id="Path_1479" data-name="Path 1479" d="M23.437,15a8.437,8.437,0,1,0,8.437,8.437A8.447,8.447,0,0,0,23.437,15Zm3.437,9.686H24.686v2.188a1.251,1.251,0,0,1-2.5,0V24.683H20a1.251,1.251,0,0,1,0-2.5h2.188V19.994a1.251,1.251,0,1,1,2.5,0v2.188h2.188a1.251,1.251,0,1,1,0,2.5Z" transform="translate(797.873 301.357)"/>
  </g>
</svg>
