<svg xmlns="http://www.w3.org/2000/svg" width="18" height="18" viewBox="0 0 18 18" fill="none">
  <path d="M14.1762 17.2563H10.3606C10.03 17.2563 9.7156 17.1144 9.49747 16.8663L6.46185 13.4201C6.09435 13.0026 6.07435 12.3826 6.41435 11.9426C6.7781 11.4719 7.43872 11.3519 7.94435 11.6651L9.61747 12.7007V7.99882C9.61747 7.33944 10.1525 6.80444 10.8118 6.80444C11.4712 6.80444 12.0062 7.33944 12.0062 7.99882V10.9776L15.0206 11.3469C15.8931 11.4538 16.4631 12.3157 16.22 13.1601L15.2806 16.4238C15.14 16.9169 14.6893 17.2563 14.1762 17.2563Z" fill="#A1A9B2"/>
  <path d="M6.23938 0.743774H1.5C0.809375 0.743774 0.25 1.30315 0.25 1.99377V6.73315C0.25 7.42377 0.809375 7.98315 1.5 7.98315H6.23938C6.93 7.98315 7.48938 7.42377 7.48938 6.73315V1.99377C7.48938 1.30315 6.93 0.743774 6.23938 0.743774ZM5.09625 4.7944C5.31625 5.01377 5.31625 5.37002 5.09625 5.5894C4.98625 5.6994 4.8425 5.7544 4.69812 5.7544C4.55375 5.7544 4.41 5.6994 4.3 5.5894L3.87 5.15877L3.43938 5.5894C3.32938 5.6994 3.18563 5.7544 3.04125 5.7544C2.89688 5.7544 2.75312 5.6994 2.64313 5.5894C2.42313 5.3694 2.42313 5.01377 2.64313 4.7944L3.07375 4.36377L2.64313 3.93252C2.42313 3.71315 2.42313 3.3569 2.64313 3.13752C2.86313 2.91815 3.21938 2.91752 3.43875 3.13752L3.86937 3.56815L4.3 3.13752C4.52 2.91752 4.87625 2.91752 5.09562 3.13752C5.315 3.35752 5.31563 3.71315 5.09562 3.93252L4.66562 4.36315L5.09625 4.7944Z" fill="#A1A9B2"/>
  <path d="M16.5 0.743774H11.7606C11.07 0.743774 10.5106 1.30315 10.5106 1.99377V5.71065C10.6106 5.69752 10.7094 5.68002 10.8131 5.68002C12.0862 5.68002 13.1219 6.7119 13.1306 7.98377H16.5C17.1906 7.98377 17.75 7.4244 17.75 6.73377V1.99377C17.75 1.30315 17.1906 0.743774 16.5 0.743774ZM15.7137 4.18502L13.9469 5.60877C13.8469 5.69002 13.7219 5.73315 13.5944 5.73315C13.5731 5.73315 13.5519 5.7319 13.53 5.7294C13.3806 5.71252 13.2444 5.63627 13.1519 5.51752L12.4575 4.6319C12.2656 4.38752 12.3087 4.03377 12.5525 3.8419C12.7975 3.65002 13.15 3.69315 13.3425 3.93752L13.6856 4.37502L15.0087 3.30877C15.2512 3.11315 15.6056 3.15252 15.8 3.39377C15.9937 3.63627 15.9562 3.99065 15.7137 4.18502Z" fill="#A1A9B2"/>
</svg>