<svg xmlns="http://www.w3.org/2000/svg" width="16" height="16" viewBox="0 0 16 16" fill="none">
  <path fill-rule="evenodd" clip-rule="evenodd" d="M12 3.99996C11.2637 3.99996 10.6667 4.59691 10.6667 5.33329C10.6667 6.06967 11.2637 6.66663 12 6.66663C12.7364 6.66663 13.3334 6.06967 13.3334 5.33329C13.3334 4.59691 12.7364 3.99996 12 3.99996ZM9.41739 4.66663C9.71341 3.51648 10.7575 2.66663 12 2.66663C13.4728 2.66663 14.6667 3.86053 14.6667 5.33329C14.6667 6.80605 13.4728 7.99996 12 7.99996C10.7575 7.99996 9.71342 7.15011 9.41739 5.99996L2.00004 5.99996C1.63185 5.99996 1.33337 5.70148 1.33337 5.33329C1.33337 4.9651 1.63185 4.66663 2.00004 4.66663L9.41739 4.66663ZM4.00004 9.33329C3.26366 9.33329 2.66671 9.93025 2.66671 10.6666C2.66671 11.403 3.26366 12 4.00004 12C4.73642 12 5.33337 11.403 5.33337 10.6666C5.33337 9.93025 4.73642 9.33329 4.00004 9.33329ZM1.33337 10.6666C1.33337 9.19387 2.52728 7.99996 4.00004 7.99996C5.2426 7.99996 6.28667 8.84981 6.5827 9.99996L14 9.99996C14.3682 9.99996 14.6667 10.2984 14.6667 10.6666C14.6667 11.0348 14.3682 11.3333 14 11.3333L6.5827 11.3333C6.28667 12.4834 5.2426 13.3333 4.00004 13.3333C2.52728 13.3333 1.33337 12.1394 1.33337 10.6666Z" fill="#747C89"/>
</svg>