<svg width="20" height="20" viewBox="0 0 20 20" fill="none" xmlns="http://www.w3.org/2000/svg">
<g clip-path="url(#clip0_2098_11449)">
<path fill-rule="evenodd" clip-rule="evenodd" d="M9.99967 2.49999C5.85754 2.49999 2.49967 5.85786 2.49967 9.99999C2.49967 14.1421 5.85754 17.5 9.99967 17.5C14.1418 17.5 17.4997 14.1421 17.4997 9.99999C17.4997 5.85786 14.1418 2.49999 9.99967 2.49999ZM0.833008 9.99999C0.833008 4.93738 4.93706 0.833328 9.99967 0.833328C15.0623 0.833328 19.1663 4.93738 19.1663 9.99999C19.1663 15.0626 15.0623 19.1667 9.99967 19.1667C4.93706 19.1667 0.833008 15.0626 0.833008 9.99999ZM9.99967 8.33333C9.0792 8.33333 8.33301 9.07952 8.33301 9.99999C8.33301 10.9205 9.0792 11.6667 9.99967 11.6667C10.9201 11.6667 11.6663 10.9205 11.6663 9.99999C11.6663 9.07952 10.9201 8.33333 9.99967 8.33333ZM6.66634 9.99999C6.66634 8.15905 8.15872 6.66666 9.99967 6.66666C11.8406 6.66666 13.333 8.15905 13.333 9.99999C13.333 11.8409 11.8406 13.3333 9.99967 13.3333C8.15872 13.3333 6.66634 11.8409 6.66634 9.99999Z" fill="white"/>
</g>
<defs>
<clipPath id="clip0_2098_11449">
<rect width="20" height="20" fill="white"/>
</clipPath>
</defs>
</svg>
