<svg xmlns="http://www.w3.org/2000/svg" width="30" height="30" viewBox="0 0 30 30">
  <path id="template" d="M29.667,3H6.333A3.333,3.333,0,0,0,3,6.333V13a3.333,3.333,0,0,0,3.333,3.333H29.667A3.333,3.333,0,0,0,33,13V6.333A3.333,3.333,0,0,0,29.667,3ZM6.333,13V6.333H29.667V13Zm10,5h-10A3.333,3.333,0,0,0,3,21.333v8.333A3.333,3.333,0,0,0,6.333,33h10a3.333,3.333,0,0,0,3.333-3.333V21.333A3.333,3.333,0,0,0,16.333,18Zm-10,11.667V21.333h10v8.333ZM29.667,18h-5a3.333,3.333,0,0,0-3.333,3.333v8.333A3.333,3.333,0,0,0,24.667,33h5A3.333,3.333,0,0,0,33,29.667V21.333A3.333,3.333,0,0,0,29.667,18Zm-5,11.667V21.333h5v8.333Z" transform="translate(-3 -3)"/>
</svg>
