<svg width="28" height="28" viewBox="0 0 28 28" fill="none" xmlns="http://www.w3.org/2000/svg">
<path fill-rule="evenodd" clip-rule="evenodd" d="M15.6276 1.54515C14.6024 1.04045 13.3975 1.04045 12.3723 1.54515L2.16166 6.57234C0.834951 7.22554 0.834942 9.10771 2.16166 9.76091L12.3723 14.788C13.3975 15.2929 14.6024 15.2929 15.6276 14.7882L25.8382 9.76091C27.165 9.10772 27.165 7.22555 25.8382 6.57234L15.6276 1.54515ZM2.22024 12.3768C2.38271 12.2967 2.57311 12.2967 2.73557 12.3768L12.3723 17.1214C13.3975 17.6261 14.6024 17.6261 15.6276 17.1214L25.2644 12.3768C25.4268 12.2967 25.6172 12.2967 25.7797 12.3768L25.8382 12.4056C27.165 13.0588 27.165 14.941 25.8382 15.5942L15.6276 20.6214C14.6024 21.1261 13.3975 21.1261 12.3723 20.6214L2.16166 15.5942C0.834942 14.941 0.834951 13.0588 2.16166 12.4056L2.22024 12.3768ZM2.73557 18.2102C2.57311 18.1302 2.38271 18.1302 2.22024 18.2102L2.16166 18.239C0.834951 18.8923 0.834942 20.7744 2.16166 21.4277L12.3723 26.4548C13.3975 26.9595 14.6024 26.9595 15.6276 26.4548L25.8382 21.4277C27.165 20.7744 27.165 18.8923 25.8382 18.239L25.7797 18.2102C25.6172 18.1302 25.4268 18.1302 25.2644 18.2102L15.6276 22.9548C14.6024 23.4595 13.3975 23.4595 12.3723 22.9548L2.73557 18.2102Z" fill="url(#paint0_linear_1052_3688)"/>
<defs>
<linearGradient id="paint0_linear_1052_3688" x1="14" y1="1.16663" x2="14" y2="26.8334" gradientUnits="userSpaceOnUse">
<stop stop-color="#FFEB83"/>
<stop offset="1" stop-color="#FF9365"/>
</linearGradient>
</defs>
</svg>
