<svg xmlns="http://www.w3.org/2000/svg" width="16" height="16" viewBox="0 0 16 16" fill="none">
  <path fill-rule="evenodd" clip-rule="evenodd" d="M0.666626 8C0.666626 5.42267 2.75596 3.33333 5.33329 3.33333H10.6666C13.244 3.33333 15.3333 5.42267 15.3333 8C15.3333 10.5773 13.244 12.6667 10.6666 12.6667H5.33329C2.75596 12.6667 0.666626 10.5773 0.666626 8ZM5.33329 4.66666C3.49234 4.66666 1.99996 6.15905 1.99996 8C1.99996 9.84094 3.49234 11.3333 5.33329 11.3333H10.6666C12.5076 11.3333 14 9.84094 14 8C14 6.15905 12.5076 4.66666 10.6666 4.66666H5.33329ZM5.33329 6.99999C4.78101 6.99999 4.33329 7.44771 4.33329 8C4.33329 8.55228 4.78101 9 5.33329 9C5.88558 9 6.33329 8.55228 6.33329 8C6.33329 7.44771 5.88558 6.99999 5.33329 6.99999ZM2.99996 8C2.99996 6.71133 4.04463 5.66666 5.33329 5.66666C6.62196 5.66666 7.66663 6.71133 7.66663 8C7.66663 9.28866 6.62196 10.3333 5.33329 10.3333C4.04463 10.3333 2.99996 9.28866 2.99996 8Z" fill="#747C89"/>
</svg>