<svg xmlns="http://www.w3.org/2000/svg" width="14.667" height="16" viewBox="0 0 14.667 16">
  <g id="trash_1_" data-name="trash (1)" transform="translate(-21.333)">
    <path id="Path_1508" data-name="Path 1508" d="M36,3a1,1,0,0,0-1-1H32.482a3,3,0,0,0-2.816-2h-2A3,3,0,0,0,24.85,2H22.333a1,1,0,0,0-1,1h0a1,1,0,0,0,1,1h.333v8.333A3.667,3.667,0,0,0,26.333,16H31a3.667,3.667,0,0,0,3.667-3.667V4H35A1,1,0,0,0,36,3Zm-3.333,9.333A1.667,1.667,0,0,1,31,14H26.333a1.667,1.667,0,0,1-1.667-1.667V4h8Z" fill="#6e6e6e"/>
    <path id="Path_1509" data-name="Path 1509" d="M171.667,198a1,1,0,0,0,1-1v-4a1,1,0,0,0-2,0v4A1,1,0,0,0,171.667,198Z" transform="translate(-144.667 -186)" fill="#6e6e6e"/>
    <path id="Path_1510" data-name="Path 1510" d="M278.333,198a1,1,0,0,0,1-1v-4a1,1,0,0,0-2,0v4A1,1,0,0,0,278.333,198Z" transform="translate(-248 -186)" fill="#6e6e6e"/>
  </g>
</svg>
