<svg xmlns="http://www.w3.org/2000/svg" width="12" height="12" viewBox="0 0 12 12" fill="none">
  <g clip-path="url(#clip0_2224_10023)">
    <path d="M6 6.5C7.65685 6.5 9 5.15685 9 3.5C9 1.84315 7.65685 0.5 6 0.5C4.34315 0.5 3 1.84315 3 3.5C3 5.15685 4.34315 6.5 6 6.5Z" fill="#A1A9B2"/>
    <path d="M10.27 8.125C8.95322 7.42382 7.49134 7.03866 6 7C4.50867 7.03866 3.04678 7.42382 1.73 8.125C1.36072 8.31281 1.05047 8.59894 0.833433 8.95184C0.6164 9.30474 0.501017 9.71071 0.5 10.125V10.5C0.5 10.7652 0.605357 11.0196 0.792893 11.2071C0.98043 11.3946 1.23478 11.5 1.5 11.5H10.5C10.7652 11.5 11.0196 11.3946 11.2071 11.2071C11.3946 11.0196 11.5 10.7652 11.5 10.5V10.135C11.5008 9.71901 11.3863 9.31093 11.1692 8.9561C10.952 8.60127 10.6408 8.31358 10.27 8.125Z" fill="#A1A9B2"/>
  </g>
  <defs>
    <clipPath id="clip0_2224_10023">
      <rect width="12" height="12" fill="white"/>
    </clipPath>
  </defs>
</svg>