<svg width="16" height="16" viewBox="0 0 16 16" fill="none" xmlns="http://www.w3.org/2000/svg">
<g clip-path="url(#clip0_1850_11591)">
<path d="M15.1359 5.11465L10.6683 0.542209C10.4425 0.298654 10.1456 0.177765 9.81676 0.177765H4.23631C3.52343 0.177765 2.9492 0.751987 2.9492 1.46488V6.39288H1.60876C1.01498 6.39288 0.533203 6.87465 0.533203 7.46843V10.88C0.533203 11.4738 1.01498 11.9555 1.60876 11.9555H10.3981C10.9919 11.9555 11.4736 11.4738 11.4736 10.88V7.46665C11.4736 6.87288 10.9919 6.3911 10.3981 6.3911H4.3412V1.63732C4.3412 1.60176 4.37676 1.56799 4.41054 1.56799H9.74743C9.95543 1.56799 10.1296 1.74221 10.1296 1.95021V4.34843C10.1296 5.06132 10.7039 5.63554 11.4168 5.63554H13.6941C13.9021 5.63554 14.0763 5.80976 14.0763 6.01776V14.3609C14.0763 14.3964 14.0408 14.4302 14.007 14.4302H4.41054C4.37498 14.4302 4.3412 14.3947 4.3412 14.3609V13.2302C4.3412 13.1253 4.25409 13.0222 4.1332 13.0222H3.14298C3.03809 13.0222 2.93498 13.1093 2.93498 13.2302V14.5333C2.93498 15.2462 3.5092 15.8204 4.22209 15.8204H14.183C14.8959 15.8204 15.4701 15.2462 15.4701 14.5333V5.94665C15.4648 5.63554 15.3439 5.34043 15.1359 5.11465ZM9.32254 9.64265C9.28876 9.60354 9.2372 9.56976 9.16787 9.53954C9.09854 9.50932 9.01143 9.48265 8.90298 9.45954L8.59365 9.38843C8.3412 9.33154 8.14387 9.23732 7.99809 9.10576C7.85231 8.97599 7.77942 8.79821 7.77942 8.57421C7.77942 8.39288 7.8292 8.23465 7.92698 8.09776C8.02476 7.96088 8.15987 7.85599 8.33231 7.77954C8.50476 7.7031 8.70209 7.66576 8.92609 7.66576C9.15365 7.66576 9.35098 7.70488 9.51809 7.78132C9.6852 7.85776 9.81498 7.96621 9.90742 8.1031C9.99987 8.24177 10.0461 8.40176 10.0496 8.5831H9.36876C9.36165 8.47821 9.31898 8.39643 9.24431 8.33776C9.16965 8.2791 9.06298 8.25065 8.92431 8.25065C8.83187 8.25065 8.75542 8.2631 8.69498 8.28621C8.63454 8.30932 8.58831 8.3431 8.55809 8.38399C8.52787 8.42665 8.51187 8.47288 8.51187 8.52621C8.51187 8.5831 8.52965 8.63288 8.56342 8.67376C8.5972 8.71465 8.64698 8.74843 8.71098 8.77688C8.77676 8.80354 8.8532 8.82843 8.94031 8.84799L9.1892 8.90488C9.3332 8.93688 9.4612 8.97776 9.5732 9.0311C9.6852 9.08265 9.77942 9.14665 9.85587 9.21776C9.93231 9.29065 9.99098 9.37243 10.0301 9.46665C10.0692 9.56088 10.0888 9.66576 10.0888 9.7831C10.0888 9.96976 10.0425 10.128 9.95009 10.2613C9.85765 10.3947 9.72431 10.496 9.55187 10.5671C9.37943 10.6382 9.16965 10.6738 8.92609 10.6738C8.68076 10.6738 8.46742 10.6364 8.28431 10.5618C8.10298 10.4871 7.96076 10.3751 7.85942 10.2258C7.75809 10.0764 7.70654 9.88621 7.70298 9.65865H8.38031C8.38742 9.7511 8.41231 9.82932 8.45854 9.89332C8.50298 9.95732 8.5652 10.0053 8.64342 10.0373C8.72165 10.0693 8.81231 10.0871 8.9172 10.0871C9.0132 10.0871 9.09498 10.0747 9.16254 10.048C9.23009 10.0213 9.28165 9.98576 9.31898 9.93954C9.35631 9.89332 9.37409 9.83999 9.37409 9.77954C9.37231 9.72976 9.35631 9.68176 9.32254 9.64265ZM5.24431 7.70665H5.95009V10.0604H7.17142V10.6364H5.24431V7.70665ZM4.65765 10.6382H3.84343L3.29587 9.70487H3.27276L2.72165 10.6382H1.91987L2.82654 9.1751L1.9412 7.70843H2.73943L3.27454 8.63465H3.29765L3.83454 7.70843H4.6292L3.74387 9.1751L4.65765 10.6382Z" fill="#747C89"/>
</g>
<defs>
<clipPath id="clip0_1850_11591">
<rect width="16" height="16" fill="white"/>
</clipPath>
</defs>
</svg>
